<svg xmlns="http://www.w3.org/2000/svg" viewBox="0 0 24 24" fill="currentColor">
  <path d="M0 0v24h24V0H0zm7.5 18.5c-2.5 0-4.5-2-4.5-4.5s2-4.5 4.5-4.5c1.5 0 2.8.7 3.6 1.8h-1.2c-.6-.8-1.5-1.3-2.4-1.3-1.7 0-3.1 1.4-3.1 3.1s1.4 3.1 3.1 3.1c1.1 0 2-.6 2.5-1.5h-2.5v-1.2h3.8c.1.3.1.6.1 1 0 2.5-2 4.5-4.5 4.5zm8.5-4.5c0-2.5-2-4.5-4.5-4.5s-4.5 2-4.5 4.5 2 4.5 4.5 4.5 4.5-2 4.5-4.5zm-1.5 0c0 1.7-1.4 3.1-3.1 3.1s-3.1-1.4-3.1-3.1 1.4-3.1 3.1-3.1 3.1 1.4 3.1 3.1zm6.5-4.5h-4.5v1.5h4.5v1.2h-4.5v1.5h4.5v1.2h-6v-6h6v1.2z"/>
</svg>
