<?xml version="1.0" encoding="UTF-8"?>
<svg width="128px" height="128px" viewBox="0 0 128 128" version="1.1" xmlns="http://www.w3.org/2000/svg">
    <g fill="#83CD29">
        <path d="M64,14c-1.3,0-2.5,0.3-3.6,0.9L19.8,37.6c-2.2,1.3-3.6,3.7-3.6,6.3v45.3c0,2.6,1.4,5,3.6,6.3l10.6,6.1 c5.1,2.5,7,2.5,9.3,2.5c7.6,0,12-4.6,12-12.7V46.7c0-0.7-0.5-1.2-1.2-1.2h-5c-0.7,0-1.2,0.5-1.2,1.2v44.7c0,3.6-3.7,7.1-9.7,4.1 L24,89.3c-0.4-0.2-0.6-0.6-0.6-1.1V42.8c0-0.5,0.2-0.9,0.6-1.1L64.4,19c0.4-0.2,0.9-0.2,1.3,0l40.4,22.7c0.4,0.2,0.6,0.6,0.6,1.1 v45.3c0,0.5-0.2,0.9-0.6,1.1L65.7,112c-0.4,0.2-0.9,0.2-1.3,0l-10.2-6c-0.3-0.2-0.7-0.2-1,0c-2.9,1.6-3.4,1.9-6.1,2.7 c-0.7,0.2-1.7,0.6,0.4,1.7l13.3,7.9c1.1,0.6,2.3,1,3.6,1c1.3,0,2.5-0.3,3.6-0.9l40.6-22.7c2.2-1.3,3.6-3.7,3.6-6.3V43.9 c0-2.6-1.4-5-3.6-6.3L67.6,14.9C66.5,14.3,65.3,14,64,14z M78.1,48.2c-11.3,0-18.1,4.8-18.1,12.7c0,8.6,6.7,11,17.4,12.1 c12.9,1.3,13.9,3.2,13.9,5.8c0,4.5-3.6,6.4-12.1,6.4c-10.7,0-13-2.7-13.8-8c-0.1-0.6-0.6-1-1.2-1h-5.1c-0.7,0-1.2,0.5-1.2,1.2 c0,6.8,3.7,14.9,21.3,14.9c12.8,0,20.1-5,20.1-13.8c0-8.7-5.9-11-18.3-12.7c-12.6-1.7-13-2.5-13-5.5c0-2.5,1.1-5.7,10.2-5.7 c8.2,0,11.2,1.8,12.5,7.3c0.1,0.5,0.6,0.9,1.2,0.9h5.2c0.3,0,0.6-0.1,0.8-0.4c0.2-0.2,0.3-0.6,0.3-0.9 C98.5,52.8,91.7,48.2,78.1,48.2z"/>
    </g>
</svg> 