<?xml version="1.0" encoding="UTF-8"?>
<svg width="128px" height="128px" viewBox="0 0 128 128" version="1.1" xmlns="http://www.w3.org/2000/svg">
    <g fill="#3178C6">
        <path d="M22,64v54h84V10H22v54zm68.9-2.6c3.3,0.8,5.8,2.3,8.1,4.6c1.2,1.2,2.9,3,3.3,3.8c0.1,0.2-5.9,4.2-9.5,6.4 c-0.1,0.1-0.7-0.5-1.3-1.4c-1.8-2.6-3.7-3.7-6.7-3.8c-4.3-0.1-7.1,2-7.1,5.1c0,1,0.3,1.6,0.9,2.3c0.9,1.2,2.3,1.9,7,3.5 c8.6,3,12.3,4.9,14.6,7.8c2.6,3.3,3.2,8.5,1.4,12.4c-2,4.3-6.9,7.2-13.8,8.2c-2.1,0.3-7.1,0.2-9.3-0.1c-4.9-0.7-9.6-2.6-12.4-5 c-1.2-1-3.4-3.8-3.3-4c0.1-0.1,0.6-0.4,1.3-0.8c0.6-0.3,2.9-1.7,5.1-2.9l4-2.2l0.8,1.2c1.2,1.8,3.7,4.3,5,5 c4.2,2.3,10,2,12.8-0.6c1.1-1.1,1.6-2.3,1.6-3.7c0-1.4-0.2-2-0.9-3c-1-1.3-3-2.4-8.7-4.5c-6.5-2.4-9.3-3.9-11.8-6.1 c-1.7-1.5-3.3-3.8-4-5.7c-0.6-1.5-0.7-5.3-0.3-7c1.2-4.8,5.4-8.1,11.4-9.2C80.6,60.9,87.3,60.8,90.9,61.4z M72.7,60v5.3H61.4v40.3 h-7.8V65.3H42.3V60c0-2.9,0-5.3,0.1-5.4c0-0.1,6.9-0.1,15.2-0.1h15.1V60z"/>
    </g>
</svg> 